<svg xmlns="http://www.w3.org/2000/svg" xmlns:xlink="http://www.w3.org/1999/xlink" version="1.1" id="Layer_4" x="0px" y="0px" width="21.875px" height="21.875px" viewBox="0 0 21.875 21.875" enable-background="new 0 0 21.875 21.875" xml:space="preserve">
<circle fill="#420863" cx="8.234" cy="13.5" r="7.062"/>
<rect x="6.016" y="5.125" fill="#420863" width="4.438" height="3.312"/>
<rect x="17.375" y="1.343" fill="#420863" width="0.812" height="6.782"/>
<rect x="14.391" y="4.328" fill="#420863" width="6.781" height="0.812"/>
<rect x="17.375" y="1.343" transform="matrix(0.7071 0.7071 -0.7071 0.7071 8.5555 -11.1866)" fill="#420863" width="0.812" height="6.781"/>
<rect x="17.375" y="1.343" transform="matrix(0.7071 -0.7071 0.7071 0.7071 1.8605 13.9598)" fill="#420863" width="0.812" height="6.781"/>
<path fill="none" stroke="#420863" stroke-miterlimit="10" d="M17.781,4.734c0,0-1.466,0.826-3.391,0.828  C11.5,5.566,13.438,2.656,10.453,2.5C8.501,2.398,8.234,5.141,8.234,5.141v1.193"/>
</svg>